IKResults
version=1
nRows=5
nColumns=67
inDegrees=yes

Units are S.I. units (second, meters, Newtons, ...)
Angles are in degrees.

endheader
time	pelvis_tilt	pelvis_list	pelvis_rotation	pelvis_tx	pelvis_ty	pelvis_tz	hip_flexion_r	hip_adduction_r	hip_rotation_r	knee_angle_r	knee_rot_r	knee_adduc_r	ankle_angle_r	ankle_rot_r	ankle_add_r	subtalar_angle_r	mtp_angle_r	mtp_rot_r	mtp_add_r	hip_flexion_l	hip_adduction_l	hip_rotation_l	knee_angle_l	knee_rot_l	knee_adduc_l	ankle_angle_l	ankle_rot_l	ankle_add_l	subtalar_angle_l	mtp_angle_l	mtp_rot_l	mtp_add_l	lumbar_extension	lumbar_bending	lumbar_rotation	neck_flexion	neck_lateral_bending	neck_rotation	arm_flex_r	arm_add_r	arm_rot_r	elbow_flex_r	elbow_rot_r	elbow_add_r	pro_sup_r	wrist_flex_r	wrist_adduc_r	wrist_rot_r	wrist_dev_r	hand_finger_flex_r	hand_finger_adduc_r	hand_finger_rot_r	arm_flex_l	arm_add_l	arm_rot_l	elbow_flex_l	elbow_rot_l	elbow_add_l	pro_sup_l	wrist_flex_l	wrist_adduc_l	wrist_rot_l	wrist_dev_l	hand_finger_flex_l	hand_finger_adduc_l	hand_finger_rot_l
      2.53500000	     12.78718644	      0.12454447	      0.69104125	      0.64073831	      0.76206030	      0.98703393	     -6.69154777	      3.75229268	      2.49471045	    -12.62721420	     -5.00000000	     -0.33751000	      6.75907146	     -2.98577055	      5.00000000	     -4.18922460	     13.67788999	     -2.00000000	     -2.00000000	     10.83695780	      2.09606428	      5.71526704	    -62.53334850	      5.00000000	     -3.83751621	      1.56208929	      0.96232450	      4.25599624	      0.64580839	     35.25952105	      1.98930491	     -0.51969736	    -27.11481383	      0.10302792	      0.05831435	      0.00000000	      0.00000000	      0.00000000	      0.00000000	      0.00000000	      0.00000000	      0.00000000	      0.00000000	      0.00000000	     -0.00042092	      0.00000000	      0.00000000	      0.00000000	      0.00000000	      0.00000000	      0.00000000	      0.00000000	      0.00000000	      0.00000000	      0.00000000	      0.00000000	      0.00000000	      0.00000000	      0.00000000	      0.00000000	      0.00000000	      0.00000000	      0.00000000	      0.00000000	      0.00000000	      0.00000000
      2.54000000	     12.63722148	      0.21813971	      0.52592591	      0.64664365	      0.76253903	      0.98796916	     -7.49372478	      3.76836813	      2.62488463	    -11.75859196	     -5.00000000	     -0.49881321	      6.88353778	     -3.05967310	      5.00000000	     -4.16699624	     13.66741248	     -2.00000000	     -2.00000000	     11.82487432	      2.16913829	      5.38275134	    -61.67646245	      5.00000000	     -3.82153867	      1.88293767	      1.45214060	      4.21394022	      0.39934779	     35.19392019	      1.99725571	     -0.49247959	    -27.00382917	     -0.17865438	      0.40615939	      0.00000000	      0.00000000	      0.00000000	      0.00000000	      0.00000000	      0.00000000	      0.00000000	      0.00000000	      0.00000000	     -0.00042092	      0.00000000	      0.00000000	      0.00000000	      0.00000000	      0.00000000	      0.00000000	      0.00000000	      0.00000000	      0.00000000	      0.00000000	      0.00000000	      0.00000000	      0.00000000	      0.00000000	      0.00000000	      0.00000000	      0.00000000	      0.00000000	      0.00000000	      0.00000000	      0.00000000
      2.54500000	     12.49668084	      0.31461039	      0.26189283	      0.65243265	      0.76284233	      0.98893389	     -8.25341201	      3.69813676	      2.69504920	    -10.95731977	     -5.00000000	     -0.56091441	      6.95713036	     -3.04782575	      5.00000000	     -4.11049832	     13.66044872	     -2.00000000	     -2.00000000	     12.79439140	      2.14514783	      5.01505325	    -60.80166784	      5.00000000	     -3.97356077	      2.10641558	      1.89818860	      4.17143801	      0.18210580	     35.14447942	      2.00000000	     -0.47242829	    -26.93365944	     -0.46252989	      0.76417922	      0.00000000	      0.00000000	      0.00000000	      0.00000000	      0.00000000	      0.00000000	      0.00000000	      0.00000000	      0.00000000	     -0.00042092	      0.00000000	      0.00000000	      0.00000000	      0.00000000	      0.00000000	      0.00000000	      0.00000000	      0.00000000	      0.00000000	      0.00000000	      0.00000000	      0.00000000	      0.00000000	      0.00000000	      0.00000000	      0.00000000	      0.00000000	      0.00000000	      0.00000000	      0.00000000	      0.00000000
      2.55000000	     12.77440351	      0.64470555	     -0.55685481	      0.65840591	      0.76371089	      0.99020786	     -9.38710640	      3.23854714	      3.32025021	    -10.30585887	     -5.00000000	     -0.57219680	      7.04506806	     -3.25512150	      5.00000000	     -3.47926961	     13.58509263	     -2.00000000	     -1.99793628	     12.99316449	      2.43312157	      3.12776367	    -59.36641641	      5.00000000	     -2.99321752	      2.26877861	      2.78009503	      3.62429704	      0.89675247	     34.37094283	      1.98560123	     -0.13199868	    -27.31086219	     -1.24533215	      1.76142135	      0.00000000	      0.00000000	      0.00000000	      0.00000000	      0.00000000	      0.00000000	      0.00000000	      0.00000000	      0.00000000	     -0.00042092	      0.00000000	      0.00000000	      0.00000000	      0.00000000	      0.00000000	      0.00000000	      0.00000000	      0.00000000	      0.00000000	      0.00000000	      0.00000000	      0.00000000	      0.00000000	      0.00000000	      0.00000000	      0.00000000	      0.00000000	      0.00000000	      0.00000000	      0.00000000	      0.00000000
      2.55500000	     12.61642621	      0.66940428	     -0.73289042	      0.66427792	      0.76375548	      0.99104966	    -10.12895345	      3.22416761	      3.31589315	     -9.50749118	     -5.00000000	     -0.60432295	      7.11365901	     -3.21205902	      5.00000000	     -3.41101793	     13.58343069	     -2.00000000	     -1.99793165	     13.88741796	      2.34870863	      2.96362504	    -58.32348778	      5.00000000	     -3.16993595	      2.44675093	      3.06166141	      3.66377548	      0.71692221	     34.32860134	      1.99018096	     -0.11423765	    -27.17487848	     -1.40647135	      2.06248068	      0.00000000	      0.00000000	      0.00000000	      0.00000000	      0.00000000	      0.00000000	      0.00000000	      0.00000000	      0.00000000	     -0.00042092	      0.00000000	      0.00000000	      0.00000000	      0.00000000	      0.00000000	      0.00000000	      0.00000000	      0.00000000	      0.00000000	      0.00000000	      0.00000000	      0.00000000	      0.00000000	      0.00000000	      0.00000000	      0.00000000	      0.00000000	      0.00000000	      0.00000000	      0.00000000	      0.00000000
